<?xml version="1.0" encoding="utf-8"?>
<!-- Generated by Mocodo 4.3.2 -->
<svg width="566" height="272" viewBox="0 0 566 272" xmlns="http://www.w3.org/2000/svg">
<rect x="0" y="0" width="566" height="272" fill="#ffffbf" stroke="none" stroke-width="0"/>

<!-- Association ATTACHED -->
<g>
	<line x1="46" y1="136" x2="149" y2="136" stroke="#66bd63" stroke-width="2"/>
	<line x1="261" y1="136" x2="149" y2="136" stroke="#66bd63" stroke-width="2"/>
	<g>
		<path d="M169 111 a14 14 90 0 1 14 14 V136 h-68 V125 a14 14 90 0 1 14 -14" fill="#a6d96a" stroke="#a6d96a" stroke-width="0"/>
		<path d="M183 136 v11 a14 14 90 0 1 -14 14 H129 a14 14 90 0 1 -14 -14 V136 H68" fill="#d9ef8b" stroke="#d9ef8b" stroke-width="0"/>
		<rect x="115" y="111" width="68" height="50" fill="none" rx="14" stroke="#66bd63" stroke-width="2"/>
		<line x1="115" y1="136" x2="183" y2="136" stroke="#66bd63" stroke-width="1"/>
		<text x="123" y="128.75" fill="#000000" font-family="Verdana" font-size="12">attached</text>
	</g>
	<text x="88" y="153" fill="#d73027" font-family="Verdana" font-size="12">1,N</text>
	<text x="189" y="153" fill="#d73027" font-family="Verdana" font-size="12">1,1</text>
</g>

<!-- Association CHARACTERIZE -->
<g>
	<line x1="261" y1="136" x2="383" y2="136" stroke="#66bd63" stroke-width="2"/>
	<line x1="508" y1="136" x2="383" y2="136" stroke="#66bd63" stroke-width="2"/>
	<g>
		<path d="M413 111 a14 14 90 0 1 14 14 V136 h-88 V125 a14 14 90 0 1 14 -14" fill="#a6d96a" stroke="#a6d96a" stroke-width="0"/>
		<path d="M427 136 v11 a14 14 90 0 1 -14 14 H353 a14 14 90 0 1 -14 -14 V136 H88" fill="#d9ef8b" stroke="#d9ef8b" stroke-width="0"/>
		<rect x="339" y="111" width="88" height="50" fill="none" rx="14" stroke="#66bd63" stroke-width="2"/>
		<line x1="339" y1="136" x2="427" y2="136" stroke="#66bd63" stroke-width="1"/>
		<text x="346" y="128.75" fill="#000000" font-family="Verdana" font-size="12">characterize</text>
	</g>
	<text x="312" y="153" fill="#d73027" font-family="Verdana" font-size="12">1,N</text>
	<text x="433" y="153" fill="#d73027" font-family="Verdana" font-size="12">1,1</text>
</g>

<!-- Entity CATEGORIES -->
<g>
	<g>
		<rect x="9" y="102" width="74" height="25" fill="#fdae61" stroke="none" stroke-width="0" opacity="1"/>
		<rect x="9" y="127" width="74" height="43" fill="#fee08b" stroke="none" stroke-width="0" opacity="1"/>
		<rect x="9" y="102" width="74" height="68" fill="none" stroke="#f46d43" stroke-width="2" opacity="1"/>
		<line x1="9" y1="127" x2="83" y2="127" stroke="#f46d43" stroke-width="1"/>
	</g>
	<text x="15" y="119.75" fill="#000000" font-family="Verdana" font-size="12">categories</text>
	<text x="14" y="144.8" fill="#000000" font-family="Verdana" font-size="12">id</text>
	<line x1="14" y1="147" x2="26" y2="147" stroke="#000000" stroke-width="1"/>
	<text x="14" y="161.8" fill="#000000" font-family="Verdana" font-size="12">name</text>
</g>

<!-- Entity SPECIALTIES -->
<g>
	<g>
		<rect x="215" y="94" width="92" height="25" fill="#fdae61" stroke="none" stroke-width="0" opacity="1"/>
		<rect x="215" y="119" width="92" height="59" fill="#fee08b" stroke="none" stroke-width="0" opacity="1"/>
		<rect x="215" y="94" width="92" height="84" fill="none" stroke="#f46d43" stroke-width="2" opacity="1"/>
		<line x1="215" y1="119" x2="307" y2="119" stroke="#f46d43" stroke-width="1"/>
	</g>
	<text x="230" y="111.75" fill="#000000" font-family="Verdana" font-size="12">specialties</text>
	<text x="220" y="136.8" fill="#000000" font-family="Verdana" font-size="12">id</text>
	<line x1="220" y1="139" x2="232" y2="139" stroke="#000000" stroke-width="1"/>
	<text x="220" y="153.8" fill="#000000" font-family="Verdana" font-size="12">name</text>
	<text x="220" y="170.8" fill="#000000" font-family="Verdana" font-size="12">id_categories</text>
</g>

<!-- Entity ARTISANS -->
<g>
	<g>
		<rect x="459" y="9" width="98" height="25" fill="#fdae61" stroke="none" stroke-width="0" opacity="1"/>
		<rect x="459" y="34" width="98" height="229" fill="#fee08b" stroke="none" stroke-width="0" opacity="1"/>
		<rect x="459" y="9" width="98" height="254" fill="none" stroke="#f46d43" stroke-width="2" opacity="1"/>
		<line x1="459" y1="34" x2="557" y2="34" stroke="#f46d43" stroke-width="1"/>
	</g>
	<text x="484" y="26.75" fill="#000000" font-family="Verdana" font-size="12">artisans</text>
	<text x="464" y="51.8" fill="#000000" font-family="Verdana" font-size="12">id</text>
	<line x1="464" y1="54" x2="476" y2="54" stroke="#000000" stroke-width="1"/>
	<text x="464" y="68.8" fill="#000000" font-family="Verdana" font-size="12">name</text>
	<text x="464" y="85.8" fill="#000000" font-family="Verdana" font-size="12">rating</text>
	<text x="464" y="102.8" fill="#000000" font-family="Verdana" font-size="12">city</text>
	<text x="464" y="119.8" fill="#000000" font-family="Verdana" font-size="12">about</text>
	<text x="464" y="136.8" fill="#000000" font-family="Verdana" font-size="12">email</text>
	<text x="464" y="153.8" fill="#000000" font-family="Verdana" font-size="12">website</text>
	<text x="464" y="170.8" fill="#000000" font-family="Verdana" font-size="12">image</text>
	<text x="464" y="187.8" fill="#000000" font-family="Verdana" font-size="12">thumbnail_sm</text>
	<text x="464" y="204.8" fill="#000000" font-family="Verdana" font-size="12">thumbnail_md</text>
	<text x="464" y="221.8" fill="#000000" font-family="Verdana" font-size="12">thumbnail_lg</text>
	<text x="464" y="238.8" fill="#000000" font-family="Verdana" font-size="12">is_top</text>
	<text x="464" y="255.8" fill="#000000" font-family="Verdana" font-size="12">id_specialty</text>
</g>
</svg>