<?xml version="1.0" encoding="utf-8"?>
<!-- Generated by Mocodo 4.3.2 -->
<svg width="550" height="204" viewBox="0 0 550 204" xmlns="http://www.w3.org/2000/svg">
<rect x="0" y="0" width="550" height="204" fill="#f7f7f7" stroke="none" stroke-width="0"/>

<!-- Association ATTACHED -->
<g>
	<line x1="46" y1="102" x2="149" y2="102" stroke="#7fbc41" stroke-width="2"/>
	<line x1="261" y1="102" x2="149" y2="102" stroke="#7fbc41" stroke-width="2"/>
	<g>
		<path d="M169 77 a14 14 90 0 1 14 14 V102 h-68 V91 a14 14 90 0 1 14 -14" fill="#b8e186" stroke="#b8e186" stroke-width="0"/>
		<path d="M183 102 v11 a14 14 90 0 1 -14 14 H129 a14 14 90 0 1 -14 -14 V102 H68" fill="#e6f5d0" stroke="#e6f5d0" stroke-width="0"/>
		<rect x="115" y="77" width="68" height="50" fill="none" rx="14" stroke="#7fbc41" stroke-width="2"/>
		<line x1="115" y1="102" x2="183" y2="102" stroke="#7fbc41" stroke-width="1"/>
		<text x="123" y="94.75" fill="#000000" font-family="Verdana" font-size="12">attached</text>
	</g>
	<text x="88" y="119" fill="#c51b7d" font-family="Verdana" font-size="12">1,N</text>
	<text x="189" y="119" fill="#c51b7d" font-family="Verdana" font-size="12">1,1</text>
</g>

<!-- Association CHARACTERIZE -->
<g>
	<line x1="261" y1="102" x2="383" y2="102" stroke="#7fbc41" stroke-width="2"/>
	<line x1="500" y1="102" x2="383" y2="102" stroke="#7fbc41" stroke-width="2"/>
	<g>
		<path d="M413 77 a14 14 90 0 1 14 14 V102 h-88 V91 a14 14 90 0 1 14 -14" fill="#b8e186" stroke="#b8e186" stroke-width="0"/>
		<path d="M427 102 v11 a14 14 90 0 1 -14 14 H353 a14 14 90 0 1 -14 -14 V102 H88" fill="#e6f5d0" stroke="#e6f5d0" stroke-width="0"/>
		<rect x="339" y="77" width="88" height="50" fill="none" rx="14" stroke="#7fbc41" stroke-width="2"/>
		<line x1="339" y1="102" x2="427" y2="102" stroke="#7fbc41" stroke-width="1"/>
		<text x="346" y="94.75" fill="#000000" font-family="Verdana" font-size="12">characterize</text>
	</g>
	<text x="312" y="119" fill="#c51b7d" font-family="Verdana" font-size="12">1,N</text>
	<text x="433" y="119" fill="#c51b7d" font-family="Verdana" font-size="12">1,1</text>
</g>

<!-- Entity CATEGORIES -->
<g>
	<g>
		<rect x="9" y="68" width="74" height="25" fill="#f1b6da" stroke="none" stroke-width="0" opacity="1"/>
		<rect x="9" y="93" width="74" height="43" fill="#fde0ef" stroke="none" stroke-width="0" opacity="1"/>
		<rect x="9" y="68" width="74" height="68" fill="none" stroke="#de77ae" stroke-width="2" opacity="1"/>
		<line x1="9" y1="93" x2="83" y2="93" stroke="#de77ae" stroke-width="1"/>
	</g>
	<text x="15" y="85.75" fill="#000000" font-family="Verdana" font-size="12">categories</text>
	<text x="14" y="110.8" fill="#000000" font-family="Verdana" font-size="12">id</text>
	<line x1="14" y1="113" x2="26" y2="113" stroke="#000000" stroke-width="1"/>
	<text x="14" y="127.8" fill="#000000" font-family="Verdana" font-size="12">name</text>
</g>

<!-- Entity SPECIALTIES -->
<g>
	<g>
		<rect x="215" y="60" width="92" height="25" fill="#f1b6da" stroke="none" stroke-width="0" opacity="1"/>
		<rect x="215" y="85" width="92" height="59" fill="#fde0ef" stroke="none" stroke-width="0" opacity="1"/>
		<rect x="215" y="60" width="92" height="84" fill="none" stroke="#de77ae" stroke-width="2" opacity="1"/>
		<line x1="215" y1="85" x2="307" y2="85" stroke="#de77ae" stroke-width="1"/>
	</g>
	<text x="230" y="77.75" fill="#000000" font-family="Verdana" font-size="12">specialties</text>
	<text x="220" y="102.8" fill="#000000" font-family="Verdana" font-size="12">id</text>
	<line x1="220" y1="105" x2="232" y2="105" stroke="#000000" stroke-width="1"/>
	<text x="220" y="119.8" fill="#000000" font-family="Verdana" font-size="12">name</text>
	<text x="220" y="136.8" fill="#000000" font-family="Verdana" font-size="12">id_categories</text>
</g>

<!-- Entity ARTISANS -->
<g>
	<g>
		<rect x="459" y="9" width="82" height="25" fill="#f1b6da" stroke="none" stroke-width="0" opacity="1"/>
		<rect x="459" y="34" width="82" height="161" fill="#fde0ef" stroke="none" stroke-width="0" opacity="1"/>
		<rect x="459" y="9" width="82" height="186" fill="none" stroke="#de77ae" stroke-width="2" opacity="1"/>
		<line x1="459" y1="34" x2="541" y2="34" stroke="#de77ae" stroke-width="1"/>
	</g>
	<text x="476" y="26.75" fill="#000000" font-family="Verdana" font-size="12">artisans</text>
	<text x="464" y="51.8" fill="#000000" font-family="Verdana" font-size="12">id</text>
	<line x1="464" y1="54" x2="476" y2="54" stroke="#000000" stroke-width="1"/>
	<text x="464" y="68.8" fill="#000000" font-family="Verdana" font-size="12">name</text>
	<text x="464" y="85.8" fill="#000000" font-family="Verdana" font-size="12">rating</text>
	<text x="464" y="102.8" fill="#000000" font-family="Verdana" font-size="12">city</text>
	<text x="464" y="119.8" fill="#000000" font-family="Verdana" font-size="12">about</text>
	<text x="464" y="136.8" fill="#000000" font-family="Verdana" font-size="12">email</text>
	<text x="464" y="153.8" fill="#000000" font-family="Verdana" font-size="12">website</text>
	<text x="464" y="170.8" fill="#000000" font-family="Verdana" font-size="12">is_top</text>
	<text x="464" y="187.8" fill="#000000" font-family="Verdana" font-size="12">id_specialty</text>
</g>
</svg>